 <svg  version="1.0" xmlns="http://www.w3.org/2000/svg"  width="666.000000pt" height="606.000000pt" viewBox="0 0 666.000000 606.000000"  preserveAspectRatio="xMidYMid meet">  <g transform="translate(0.000000,606.000000) scale(0.100000,-0.100000)" fill="#d5071b" stroke="none"> <path d="M0 3030 l0 -3030 3330 0 3330 0 0 3030 0 3030 -3330 0 -3330 0 0 -3030z m3770 2000 c34 -28 35 -31 34 -95 0 -37 -5 -70 -11 -73 -5 -4 -56 -99 -112 -212 -56 -113 -106 -212 -111 -220 -5 -8 -11 -22 -14 -30 -3 -8 -10 -22 -15 -30 -5 -8 -12 -22 -15 -30 -3 -8 -10 -22 -15 -30 -5 -8 -19 -35 -31 -60 -11 -25 -25 -52 -30 -60 -5 -8 -18 -35 -30 -60 -11 -25 -25 -52 -29 -60 -8 -14 -21 -40 -55 -105 -8 -16 -17 -37 -21 -45 -3 -8 -16 -33 -30 -55 -13 -22 -24 -48 -25 -57 0 -10 -4 -18 -10 -18 -27 0 -27 -115 1 -145 5 -5 9 -18 9 -30 0 -11 7 -33 15 -49 8 -15 15 -36 15 -45 0 -10 7 -26 15 -37 8 -10 15 -30 15 -42 0 -13 7 -40 16 -60 9 -21 22 -52 30 -70 8 -18 14 -42 14 -53 0 -12 6 -33 14 -47 15 -30 33 -81 46 -127 13 -48 31 -98 46 -128 8 -16 14 -39 14 -52 0 -12 7 -28 15 -35 8 -7 15 -18 15 -26 0 -7 6 -19 13 -26 8 -7 17 -26 21 -41 3 -15 11 -27 16 -27 6 0 10 -8 10 -19 0 -10 7 -24 15 -31 8 -7 15 -21 15 -31 0 -10 4 -20 9 -23 5 -3 28 -43 50 -88 70 -138 93 -182 102 -198 4 -8 20 -37 34 -65 14 -27 29 -57 34 -65 5 -8 12 -22 15 -30 4 -8 17 -35 31 -59 14 -24 25 -50 25 -58 0 -7 7 -16 15 -19 8 -4 15 -14 15 -24 0 -10 7 -23 15 -30 8 -7 15 -21 15 -31 0 -10 4 -20 9 -23 5 -3 28 -43 50 -88 23 -46 73 -143 111 -217 52 -100 70 -144 70 -174 0 -68 -56 -145 -129 -178 -52 -23 -89 -24 -115 -4 -11 8 -26 15 -34 15 -21 0 -74 58 -100 110 -24 47 -32 62 -50 95 -6 11 -21 40 -32 65 -12 25 -25 52 -30 60 -5 8 -28 51 -50 95 -23 44 -46 89 -52 100 -24 43 -28 52 -55 107 -15 32 -31 58 -35 58 -4 0 -8 8 -8 19 0 10 -7 24 -15 31 -8 7 -15 21 -15 31 0 10 -4 21 -10 24 -5 3 -22 33 -37 65 -15 33 -31 60 -35 60 -4 0 -8 8 -8 19 0 10 -7 24 -15 31 -8 7 -15 21 -15 31 0 10 -5 21 -11 24 -5 4 -14 17 -20 28 -5 12 -13 29 -18 37 -5 8 -18 35 -30 60 -21 44 -30 62 -51 98 -6 9 -14 27 -20 40 -10 23 -34 30 -45 12 -3 -5 -19 -10 -35 -10 -36 0 -44 -11 -25 -36 8 -10 15 -39 15 -64 0 -25 7 -67 15 -94 8 -27 15 -66 15 -86 0 -21 7 -57 15 -80 8 -23 15 -61 15 -85 0 -23 7 -64 15 -91 8 -27 15 -65 15 -85 0 -20 7 -56 15 -79 8 -23 15 -62 15 -86 0 -23 5 -55 11 -71 6 -15 15 -57 19 -93 4 -36 12 -85 18 -110 6 -25 16 -74 22 -110 6 -36 16 -94 22 -130 15 -83 15 -148 -1 -180 -46 -96 -74 -115 -171 -115 -67 0 -79 3 -112 28 -46 35 -78 88 -78 130 -1 18 -7 50 -15 72 -8 22 -15 59 -15 82 0 23 -5 54 -11 70 -6 15 -15 57 -19 93 -4 36 -12 85 -18 110 -11 45 -24 120 -42 235 -5 33 -13 73 -19 88 -6 16 -11 49 -11 75 -1 26 -7 65 -15 87 -8 22 -15 60 -15 85 -1 25 -7 63 -15 85 -8 22 -15 60 -15 85 -1 25 -7 63 -15 85 -8 22 -15 55 -15 73 0 42 -27 158 -46 195 -8 16 -14 39 -14 51 0 12 -7 31 -15 42 -8 10 -15 31 -15 45 0 14 -7 34 -15 45 -8 10 -15 27 -15 37 0 11 -6 33 -13 50 -20 48 -38 98 -47 136 -5 18 -13 38 -19 44 -6 6 -11 23 -11 37 0 14 -7 35 -15 46 -8 10 -15 31 -15 45 0 14 -7 34 -15 45 -8 10 -15 30 -15 44 0 14 -6 35 -14 46 -8 11 -16 30 -18 43 -3 21 -39 48 -88 65 -8 3 -22 10 -30 15 -8 5 -22 12 -30 15 -8 3 -22 10 -30 15 -8 5 -36 19 -62 31 -27 12 -50 26 -54 31 -3 5 -16 9 -29 9 -13 0 -26 4 -30 9 -5 9 -64 39 -105 55 -8 3 -22 10 -30 15 -8 5 -22 12 -30 15 -8 3 -22 10 -30 15 -42 24 -79 41 -90 41 -6 0 -18 7 -26 15 -9 8 -24 15 -33 15 -10 0 -24 7 -31 15 -7 8 -20 15 -30 15 -10 0 -23 7 -30 15 -7 8 -20 15 -30 15 -10 0 -23 7 -30 15 -7 8 -17 15 -24 15 -6 0 -38 13 -71 29 -33 16 -67 32 -75 35 -8 3 -22 10 -30 15 -8 5 -22 12 -30 15 -8 3 -22 10 -30 15 -8 5 -22 12 -30 15 -21 8 -50 28 -74 51 -17 16 -21 31 -20 77 1 49 5 62 29 85 24 25 34 28 91 27 45 0 69 -5 82 -17 10 -9 23 -17 29 -17 6 0 35 -13 66 -30 31 -16 63 -30 71 -30 7 0 19 -7 26 -15 7 -8 20 -15 30 -15 10 0 23 -7 30 -15 7 -8 23 -15 36 -15 13 0 24 -3 24 -8 0 -6 56 -35 110 -56 8 -3 22 -10 30 -15 40 -24 203 -101 214 -101 8 0 19 -7 26 -15 7 -8 20 -15 30 -15 10 0 23 -7 30 -15 7 -8 20 -15 30 -15 10 0 23 -7 30 -15 7 -8 20 -15 30 -15 10 0 23 -7 30 -15 7 -8 23 -15 35 -15 12 0 28 -7 35 -15 7 -8 20 -15 30 -15 10 0 23 -7 30 -15 7 -8 19 -15 26 -15 8 0 23 -6 34 -12 16 -10 24 -10 40 0 11 6 30 12 43 12 13 0 32 7 43 15 10 8 28 15 39 15 11 0 33 7 49 15 15 8 35 15 43 15 8 0 29 6 46 13 42 18 95 37 132 47 98 28 135 53 135 91 0 9 7 22 15 29 8 7 15 20 15 30 0 10 7 23 15 30 8 7 15 20 15 30 0 10 7 23 15 30 8 7 15 20 15 30 0 10 7 23 15 30 8 7 15 20 15 30 0 10 7 23 15 30 8 7 15 20 15 30 0 10 7 23 15 30 8 7 15 20 15 30 0 10 7 23 15 30 8 7 15 20 15 30 0 10 7 23 15 30 8 7 15 19 15 27 0 8 7 21 15 29 8 9 15 24 15 33 0 10 7 24 15 31 8 7 15 19 15 27 0 8 7 21 15 29 8 9 15 24 15 33 0 10 7 24 15 31 8 7 15 20 15 30 0 10 7 23 15 30 8 7 15 20 15 30 0 10 7 23 15 30 8 7 15 20 15 30 0 10 7 23 15 30 8 7 15 20 15 30 0 10 7 23 15 30 8 7 15 20 15 30 0 10 7 23 15 30 8 7 15 20 15 30 0 9 17 33 37 53 32 33 42 37 87 37 41 0 58 -6 86 -30z m-1042 -499 c29 -10 58 -23 65 -30 6 -6 16 -11 23 -11 6 0 30 -21 53 -47 58 -66 59 -68 67 -97 3 -15 10 -29 15 -32 5 -3 9 -50 9 -104 0 -92 -2 -104 -31 -157 -32 -60 -95 -132 -116 -133 -6 0 -18 -6 -25 -12 -22 -22 -113 -48 -164 -48 -50 1 -147 29 -167 49 -6 6 -15 11 -19 11 -14 0 -83 73 -109 115 -38 60 -55 163 -39 234 17 79 38 118 90 171 55 55 85 75 128 84 17 4 34 12 37 17 10 16 127 9 183 -10z m1193 -124 c15 -12 30 -32 34 -44 3 -13 11 -23 16 -23 5 0 9 -9 9 -19 0 -11 7 -26 15 -35 8 -8 15 -21 15 -29 0 -8 7 -20 15 -27 8 -7 15 -21 15 -31 0 -9 7 -24 15 -33 8 -8 15 -21 15 -29 0 -8 7 -20 15 -27 8 -7 15 -20 15 -30 0 -10 7 -23 15 -30 8 -7 15 -20 15 -30 0 -10 7 -23 15 -30 8 -7 15 -20 15 -30 0 -10 7 -23 15 -30 8 -7 15 -20 15 -30 0 -10 7 -23 15 -30 8 -7 15 -20 15 -30 0 -10 7 -23 15 -30 8 -7 15 -20 15 -30 0 -10 7 -23 15 -30 8 -7 15 -21 15 -31 0 -10 4 -20 9 -23 5 -4 19 -27 31 -54 12 -26 26 -54 31 -62 5 -8 12 -22 15 -30 7 -19 67 -50 97 -50 13 0 32 -7 43 -15 10 -8 30 -15 44 -15 14 0 34 -7 44 -15 11 -8 31 -15 45 -15 14 0 35 -7 45 -15 11 -8 29 -15 41 -15 12 0 26 -5 33 -12 9 -9 18 -9 34 -1 13 6 30 14 38 17 8 3 22 10 30 15 37 21 146 71 156 71 6 0 17 7 24 15 7 8 20 15 30 15 10 0 23 7 30 15 7 8 20 15 30 15 10 0 23 7 30 15 7 8 21 15 31 15 9 0 24 7 33 15 8 8 19 15 25 15 6 0 37 14 68 30 31 17 61 30 68 30 7 0 18 7 25 15 7 8 21 15 31 15 9 0 24 7 33 15 8 8 19 15 25 15 6 0 36 13 67 30 62 33 112 45 148 36 27 -7 66 -62 66 -93 0 -27 -63 -93 -89 -93 -11 0 -22 -4 -25 -9 -7 -11 -88 -51 -103 -51 -6 0 -16 -7 -23 -15 -7 -8 -21 -15 -31 -15 -9 0 -24 -7 -33 -15 -8 -8 -19 -15 -25 -15 -6 0 -37 -13 -68 -29 -32 -16 -65 -32 -73 -35 -8 -3 -22 -10 -30 -15 -8 -5 -22 -12 -30 -15 -8 -3 -22 -10 -30 -14 -43 -24 -83 -42 -95 -42 -7 0 -18 -7 -25 -15 -7 -8 -20 -15 -30 -15 -10 0 -23 -7 -30 -15 -7 -8 -21 -15 -31 -15 -9 0 -24 -7 -33 -15 -8 -8 -21 -15 -28 -15 -8 0 -23 -7 -34 -15 -10 -8 -26 -15 -34 -15 -19 -1 -60 -35 -60 -50 0 -7 -6 -24 -14 -38 -19 -37 -37 -91 -44 -127 -2 -16 -11 -39 -18 -50 -8 -11 -14 -29 -14 -40 0 -11 -7 -29 -15 -39 -8 -11 -15 -31 -15 -45 0 -14 -7 -35 -15 -45 -8 -11 -15 -31 -15 -45 0 -14 -7 -35 -15 -45 -8 -11 -15 -30 -15 -42 0 -12 -6 -35 -14 -51 -19 -37 -46 -153 -46 -195 0 -18 -7 -55 -15 -82 -8 -27 -15 -65 -15 -85 0 -20 -7 -58 -15 -85 -8 -27 -15 -65 -15 -85 0 -20 -7 -58 -15 -85 -8 -27 -15 -65 -15 -85 0 -20 -7 -58 -15 -85 -8 -27 -15 -68 -15 -90 0 -23 -7 -59 -15 -81 -8 -22 -14 -56 -14 -75 -1 -44 -29 -166 -48 -205 -23 -47 -54 -64 -121 -67 -33 -2 -63 0 -67 4 -4 3 7 25 24 49 28 38 31 50 31 114 0 47 -5 78 -15 91 -8 10 -15 26 -15 35 0 9 -7 22 -15 29 -8 7 -15 20 -15 30 0 10 -7 23 -15 30 -19 16 -19 71 0 134 8 27 15 68 15 90 0 23 7 59 15 81 8 22 14 58 15 80 0 22 7 62 15 89 8 27 15 66 15 86 0 21 6 55 14 77 7 21 15 77 17 124 l4 84 -28 3 c-30 4 -66 -29 -67 -60 0 -9 -4 -20 -10 -23 -5 -3 -28 -43 -50 -88 -23 -45 -45 -89 -50 -97 -5 -8 -18 -35 -30 -60 -11 -25 -25 -53 -30 -62 -6 -10 -14 -26 -19 -35 -11 -25 -40 -28 -47 -6 -3 10 -9 25 -14 33 -5 8 -19 35 -30 60 -12 25 -26 52 -31 60 -5 8 -12 22 -16 30 -4 8 -17 32 -30 52 -24 39 -22 51 17 121 25 43 32 57 71 135 23 45 45 85 50 88 5 3 9 13 9 23 0 10 7 24 15 31 8 7 15 22 15 34 0 11 7 30 15 40 8 11 15 31 15 45 0 14 7 35 15 45 8 11 15 31 15 45 0 14 7 35 15 45 8 11 15 30 15 42 0 12 6 35 14 51 15 30 33 80 46 128 11 39 29 91 46 133 19 46 17 71 -11 117 -14 22 -28 47 -31 55 -7 18 -41 88 -53 110 -5 8 -18 35 -30 60 -12 25 -26 52 -31 60 -5 8 -11 22 -14 30 -3 8 -10 23 -16 33 -5 9 -15 25 -20 35 -6 9 -12 23 -15 30 -3 6 -7 18 -10 25 -3 6 -10 21 -17 32 -22 39 -28 50 -33 63 -3 6 -7 18 -10 25 -3 6 -10 21 -17 32 -23 40 -28 50 -34 65 -3 8 -10 22 -15 30 -5 8 -12 22 -15 30 -3 8 -10 22 -15 30 -5 8 -12 22 -15 30 -3 8 -12 27 -20 42 -52 97 55 195 137 125z m837 -384 c59 -20 134 -84 165 -142 23 -44 24 -179 1 -224 -22 -41 -111 -127 -133 -127 -10 0 -26 -7 -37 -15 -21 -16 -129 -21 -138 -6 -3 5 -18 12 -32 15 -41 11 -82 46 -122 106 -35 52 -36 59 -36 140 0 75 3 90 26 126 29 45 106 114 129 114 8 1 25 7 39 15 34 19 72 18 138 -2z m-1187 -2165 c10 -13 18 -31 19 -40 0 -9 4 -20 10 -23 5 -3 21 -30 36 -58 14 -29 36 -72 50 -96 34 -62 31 -76 -19 -100 -51 -25 -109 -27 -127 -6 -7 8 -18 15 -24 15 -6 0 -20 13 -31 27 -26 36 -27 153 -2 181 9 10 17 24 17 31 0 7 7 19 15 27 8 9 15 26 15 40 0 30 16 31 41 2z"/> </g> </svg> 